<svg width="40" height="10" viewBox="0 0 40 10" fill="none" xmlns="http://www.w3.org/2000/svg">
<path d="M0.104 0.599999H1.496L6.356 7.26L5.996 7.38V0.599999H7.388V9H5.996L1.148 2.352L1.52 2.232V9H0.104V0.599999ZM13.3639 0.516C13.9879 0.516 14.5679 0.624 15.1039 0.84C15.6479 1.056 16.1199 1.36 16.5199 1.752C16.9279 2.144 17.2439 2.6 17.4679 3.12C17.6999 3.632 17.8159 4.188 17.8159 4.788C17.8159 5.388 17.6999 5.952 17.4679 6.48C17.2439 7 16.9279 7.456 16.5199 7.848C16.1199 8.24 15.6479 8.548 15.1039 8.772C14.5679 8.988 13.9879 9.096 13.3639 9.096C12.7399 9.096 12.1559 8.988 11.6119 8.772C11.0759 8.548 10.6039 8.24 10.1959 7.848C9.79591 7.456 9.47991 7 9.24791 6.48C9.02391 5.952 8.91191 5.388 8.91191 4.788C8.91191 4.188 9.02391 3.628 9.24791 3.108C9.47991 2.588 9.79591 2.136 10.1959 1.752C10.6039 1.36 11.0759 1.056 11.6119 0.84C12.1559 0.624 12.7399 0.516 13.3639 0.516ZM13.3759 1.716C12.9599 1.716 12.5679 1.796 12.1999 1.956C11.8399 2.108 11.5199 2.324 11.2399 2.604C10.9599 2.884 10.7399 3.212 10.5799 3.588C10.4279 3.956 10.3519 4.356 10.3519 4.788C10.3519 5.22 10.4319 5.624 10.5919 6C10.7519 6.376 10.9719 6.708 11.2519 6.996C11.5319 7.276 11.8519 7.496 12.2119 7.656C12.5799 7.816 12.9679 7.896 13.3759 7.896C13.7839 7.896 14.1679 7.816 14.5279 7.656C14.8959 7.496 15.2159 7.276 15.4879 6.996C15.7599 6.708 15.9719 6.376 16.1239 6C16.2839 5.624 16.3639 5.22 16.3639 4.788C16.3639 4.356 16.2839 3.956 16.1239 3.588C15.9719 3.212 15.7599 2.884 15.4879 2.604C15.2159 2.324 14.8959 2.108 14.5279 1.956C14.1679 1.796 13.7839 1.716 13.3759 1.716ZM18.1627 0.599999H24.8947V1.812H22.2307V9H20.8147V1.812H18.1627V0.599999ZM26.1079 0.599999H32.1079V1.812H27.5239V4.176H31.6279V5.376H27.5239V7.788H32.2519V9H26.1079V0.599999ZM39.0949 2.544C38.7909 2.352 38.4909 2.2 38.1949 2.088C37.8989 1.976 37.6189 1.896 37.3549 1.848C37.0909 1.8 36.8509 1.776 36.6349 1.776C36.2189 1.776 35.8869 1.856 35.6389 2.016C35.3909 2.176 35.2669 2.408 35.2669 2.712C35.2669 2.984 35.3469 3.208 35.5069 3.384C35.6749 3.552 35.8909 3.692 36.1549 3.804C36.4269 3.908 36.7229 4.008 37.0429 4.104C37.3709 4.2 37.6949 4.308 38.0149 4.428C38.3349 4.54 38.6309 4.688 38.9029 4.872C39.1749 5.056 39.3909 5.292 39.5509 5.58C39.7109 5.86 39.7909 6.216 39.7909 6.648C39.7909 7.144 39.6549 7.576 39.3829 7.944C39.1109 8.304 38.7349 8.584 38.2549 8.784C37.7829 8.984 37.2389 9.084 36.6229 9.084C36.1829 9.084 35.7549 9.028 35.3389 8.916C34.9229 8.796 34.5309 8.636 34.1629 8.436C33.8029 8.236 33.4789 8.004 33.1909 7.74L33.8029 6.576C34.0909 6.84 34.3949 7.064 34.7149 7.248C35.0429 7.432 35.3709 7.572 35.6989 7.668C36.0349 7.764 36.3509 7.812 36.6469 7.812C37.1429 7.812 37.5269 7.716 37.7989 7.524C38.0789 7.332 38.2189 7.064 38.2189 6.72C38.2189 6.44 38.1349 6.216 37.9669 6.048C37.8069 5.872 37.5909 5.728 37.3189 5.616C37.0549 5.504 36.7589 5.404 36.4309 5.316C36.1109 5.228 35.7869 5.128 35.4589 5.016C35.1389 4.896 34.8429 4.748 34.5709 4.572C34.3069 4.396 34.0909 4.168 33.9229 3.888C33.7629 3.608 33.6829 3.252 33.6829 2.82C33.6829 2.348 33.8109 1.94 34.0669 1.596C34.3229 1.244 34.6789 0.972 35.1349 0.779999C35.5989 0.587999 36.1349 0.491999 36.7429 0.491999C37.2869 0.491999 37.8149 0.572 38.3269 0.732C38.8389 0.892 39.2909 1.1 39.6829 1.356L39.0949 2.544Z" fill="black"/>
</svg>
