<svg xmlns="http://www.w3.org/2000/svg" width="175" height="25" fill="currentColor" viewBox="0 0 110 14">
            <g id="Page-1" stroke="none" stroke-width="1" fill-rule="evenodd">
            <g id="Keyless-start-1440" transform="translate(-24.000000, -33.000000)" fill-rule="nonzero">
            <g id="Keyless_Logo-black_01" transform="translate(24.000000, 33.000000)">
            <path d="M104.93,5.84 L104.93,5.84 C103.17,5.43 101.65,5.08 101.65,3.92 C101.65,2.76 102.87,1.99 104.65,1.99 C106.43,1.99 107.65,2.8 107.65,3.92 L107.65,4.15 L109.55,4.15 L109.55,3.92 C109.55,1.7 107.47,0.08 104.55,0.08 C101.63,0.08 99.61,1.66 99.61,3.92 C99.61,6.66 102.18,7.21 104.45,7.7 C106.33,8.11 107.96,8.46 107.96,9.88 C107.917073,10.6119468 107.452531,11.2521561 106.77,11.52 C106.075883,11.8482125 105.317803,12.0189513 104.55,12.02 C102.55,12.02 101.15,11.14 101.15,9.88 L101.15,9.65 L99.25,9.65 L99.25,9.88 C99.25,12.22 101.48,13.88 104.55,13.88 C107.62,13.88 109.86,12.22 109.86,9.88 C110,7 107.31,6.39 104.93,5.84 Z" id="Path"/>
            <path d="M88.23,5.84 L88.23,5.91 L88.23,5.84 C86.47,5.43 85,5.08 85,3.92 C85,2.76 86.17,2 88,2 C89.83,2 91,2.81 91,3.93 L91,4.16 L92.9,4.16 L92.9,3.92 C92.9,1.7 90.82,0.08 87.9,0.08 C84.98,0.08 82.97,1.66 82.97,3.92 C82.97,6.66 85.53,7.21 87.8,7.7 C89.68,8.11 91.31,8.46 91.31,9.88 C91.2720432,10.6137128 90.8057515,11.2563333 90.12,11.52 C89.4549411,11.827274 88.7325549,11.9908331 88,12 C86,12 84.61,11.12 84.61,9.86 L84.61,9.63 L82.71,9.63 L82.71,9.86 C82.71,12.2 84.93,13.86 88,13.86 C91.07,13.86 93.31,12.2 93.31,9.86 C93.29,7 90.6,6.39 88.23,5.84 Z" id="Path"/>
            <rect id="Rectangle" x="66.01" y="11.71" width="10.05" height="1.93"/>
            <rect id="Rectangle" x="66.01" y="6.03" width="10.05" height="1.93"/>
            <rect id="Rectangle" x="66.01" y="0.36" width="10.05" height="1.93"/>
            <polygon id="Path" points="52.63 0.36 50.7 0.36 50.7 13.64 60.43 13.64 60.43 11.71 52.63 11.71"/>
            <polygon id="Path" points="38.41 6.21 34.38 0.41 34.34 0.36 31.98 0.36 37.45 8.19 37.45 13.64 39.38 13.64 39.38 8.19 44.69 0.56 44.83 0.36 42.48 0.36"/>
            <rect id="Rectangle" x="16.92" y="11.71" width="10.05" height="1.93"/>
            <rect id="Rectangle" x="16.92" y="6.03" width="10.05" height="1.93"/>
            <rect id="Rectangle" x="16.92" y="0.36" width="10.05" height="1.93"/>
            <polygon id="Path" points="11.75 0.36 9.09 0.36 3.05 6.96 3.01 7.01 9.07 13.62 9.09 13.64 11.75 13.64 5.68 7 11.64 0.48"/>
            <rect id="Rectangle" x="0" y="0.36" width="1.93" height="13.29"/>
            </g>
            </g>
            </g>
            </svg>